<mxfile host="app.diagrams.net" modified="2023-04-29T08:26:33.316Z" agent="Mozilla/5.0 (Windows NT 10.0; Win64; x64) AppleWebKit/537.36 (KHTML, like Gecko) Chrome/112.0.0.0 Safari/537.36" etag="ceHl_Xliuo4Asirvz_zD" version="21.2.3" type="device">
  <diagram name="Trang-1" id="2zXG3_Sj1ZhrPS3RUCvw">
    <mxGraphModel dx="1290" dy="483" grid="1" gridSize="10" guides="1" tooltips="1" connect="1" arrows="1" fold="1" page="1" pageScale="1" pageWidth="827" pageHeight="1169" math="0" shadow="0">
      <root>
        <mxCell id="0" />
        <mxCell id="1" parent="0" />
        <mxCell id="C6tFdkC65mrZDAUik0rL-1" value="Người dùng" style="shape=umlActor;verticalLabelPosition=bottom;verticalAlign=top;html=1;outlineConnect=0;" vertex="1" parent="1">
          <mxGeometry x="40" y="270" width="30" height="60" as="geometry" />
        </mxCell>
        <mxCell id="C6tFdkC65mrZDAUik0rL-2" value="" style="rounded=0;whiteSpace=wrap;html=1;" vertex="1" parent="1">
          <mxGeometry x="130" y="120" width="650" height="360" as="geometry" />
        </mxCell>
        <mxCell id="C6tFdkC65mrZDAUik0rL-3" value="Thanh Toán Bằng Thẻ Tin Dụng" style="text;align=center;fontStyle=1;verticalAlign=middle;spacingLeft=3;spacingRight=3;strokeColor=none;rotatable=0;points=[[0,0.5],[1,0.5]];portConstraint=eastwest;html=1;" vertex="1" parent="1">
          <mxGeometry x="374" y="130" width="80" height="26" as="geometry" />
        </mxCell>
        <mxCell id="C6tFdkC65mrZDAUik0rL-4" value="Chọn Phương Thức Thanh Toán" style="ellipse;whiteSpace=wrap;html=1;" vertex="1" parent="1">
          <mxGeometry x="140" y="270" width="120" height="50" as="geometry" />
        </mxCell>
        <mxCell id="C6tFdkC65mrZDAUik0rL-7" value="Nhập thông &lt;br&gt;tin thẻ tín dụng" style="ellipse;whiteSpace=wrap;html=1;" vertex="1" parent="1">
          <mxGeometry x="320" y="270" width="120" height="50" as="geometry" />
        </mxCell>
        <mxCell id="C6tFdkC65mrZDAUik0rL-8" value="" style="endArrow=none;html=1;rounded=0;exitX=1;exitY=0.3333333333333333;exitDx=0;exitDy=0;exitPerimeter=0;entryX=0;entryY=0.5;entryDx=0;entryDy=0;" edge="1" parent="1" source="C6tFdkC65mrZDAUik0rL-1" target="C6tFdkC65mrZDAUik0rL-4">
          <mxGeometry width="50" height="50" relative="1" as="geometry">
            <mxPoint x="390" y="330" as="sourcePoint" />
            <mxPoint x="440" y="280" as="targetPoint" />
          </mxGeometry>
        </mxCell>
        <mxCell id="C6tFdkC65mrZDAUik0rL-10" value="Hệ Thống" style="shape=umlActor;verticalLabelPosition=bottom;verticalAlign=top;html=1;outlineConnect=0;" vertex="1" parent="1">
          <mxGeometry x="790" y="260" width="30" height="60" as="geometry" />
        </mxCell>
        <mxCell id="C6tFdkC65mrZDAUik0rL-14" value="Xác thực Thông Tin Thẻ" style="ellipse;whiteSpace=wrap;html=1;" vertex="1" parent="1">
          <mxGeometry x="500" y="270" width="100" height="50" as="geometry" />
        </mxCell>
        <mxCell id="C6tFdkC65mrZDAUik0rL-27" value="&amp;lt;&amp;lt;include&amp;gt;&amp;gt;" style="html=1;verticalAlign=bottom;endArrow=block;edgeStyle=elbowEdgeStyle;elbow=vertical;curved=0;rounded=0;exitX=1;exitY=0.5;exitDx=0;exitDy=0;entryX=0;entryY=0.5;entryDx=0;entryDy=0;" edge="1" parent="1" source="C6tFdkC65mrZDAUik0rL-4" target="C6tFdkC65mrZDAUik0rL-7">
          <mxGeometry width="80" relative="1" as="geometry">
            <mxPoint x="290" y="299.5" as="sourcePoint" />
            <mxPoint x="370" y="299.5" as="targetPoint" />
          </mxGeometry>
        </mxCell>
        <mxCell id="C6tFdkC65mrZDAUik0rL-30" value="&amp;lt;&amp;lt;include&amp;gt;&amp;gt;" style="html=1;verticalAlign=bottom;endArrow=block;edgeStyle=elbowEdgeStyle;elbow=vertical;curved=0;rounded=0;exitX=1;exitY=0.5;exitDx=0;exitDy=0;" edge="1" parent="1" target="C6tFdkC65mrZDAUik0rL-14">
          <mxGeometry width="80" relative="1" as="geometry">
            <mxPoint x="440" y="294.5" as="sourcePoint" />
            <mxPoint x="480" y="295" as="targetPoint" />
          </mxGeometry>
        </mxCell>
        <mxCell id="C6tFdkC65mrZDAUik0rL-31" value="Thanh Toán" style="ellipse;whiteSpace=wrap;html=1;" vertex="1" parent="1">
          <mxGeometry x="650" y="270" width="100" height="50" as="geometry" />
        </mxCell>
        <mxCell id="C6tFdkC65mrZDAUik0rL-32" value="&amp;lt;&amp;lt;include&amp;gt;&amp;gt;" style="html=1;verticalAlign=bottom;endArrow=block;edgeStyle=elbowEdgeStyle;elbow=vertical;curved=0;rounded=0;exitX=1;exitY=0.5;exitDx=0;exitDy=0;" edge="1" parent="1">
          <mxGeometry width="80" relative="1" as="geometry">
            <mxPoint x="600" y="299.5" as="sourcePoint" />
            <mxPoint x="650" y="300" as="targetPoint" />
          </mxGeometry>
        </mxCell>
        <mxCell id="C6tFdkC65mrZDAUik0rL-33" value="" style="line;strokeWidth=1;fillColor=none;align=left;verticalAlign=middle;spacingTop=-1;spacingLeft=3;spacingRight=3;rotatable=0;labelPosition=right;points=[];portConstraint=eastwest;strokeColor=inherit;" vertex="1" parent="1">
          <mxGeometry x="750" y="291" width="40" height="8" as="geometry" />
        </mxCell>
      </root>
    </mxGraphModel>
  </diagram>
</mxfile>
